# xmcd
#
# Track frame offsets:
#	150
#	18099
#	34209
#	48409
#	62836
#	77130
#	89723
#	101763
#	115644
#	128682
#	142571
#	154521
#	168854
#	179261
#	193772
#	207013
#	219074
#
# Disc length: 3083 seconds
#
# Revision: 1
# Processed by: cddbd v1.5.1PL0 Copyright (c) Steve Scherf et al.
# Submitted via: audiograbber 1.83.01
#
DISCID=d50c0911
DTITLE=John Lee Hooker - Walkin' This Highway
DYEAR=1900
DGENRE=Blues
TTITLE0=Wednesday Evening Blues
TTITLE1=My First Wife Left Me
TTITLE2=Boogie Chillen
TTITLE3=Sally Mae
TTITLE4=Henry's Swing Club
TTITLE5=Hobo Blues
TTITLE6=Crawling King Snake
TTITLE7=Alberta
TTITLE8=Do My Baby Think Of Me
TTITLE9=Three Long Years Today
TTITLE10=Strike Blues
TTITLE11=Grinder Man
TTITLE12=Walkin' This Highway
TTITLE13=Four Woman In My Life
TTITLE14=I Need Lovin'
TTITLE15=Find Me A Woman
TTITLE16=I'm In The Mood
EXTD=keine Angaben zu den Daten der Aufnahmen verfügbar
EXTT0=
EXTT1=
EXTT2=
EXTT3=
EXTT4=
EXTT5=
EXTT6=
EXTT7=
EXTT8=
EXTT9=
EXTT10=
EXTT11=
EXTT12=
EXTT13=
EXTT14=
EXTT15=
EXTT16=
PLAYORDER=
